# xmcd
#
# Track frame offsets:
#	150
#	17543
#	35079
#	50506
#	66737
#	80744
#	93648
#	107261
#	123219
#	138631
#	152946
#	168931
#	184398
#	197169
#	211892
#
# Disc length: 3019
#
# Revision: 2
# Processed by: cddbd v1.5.1PL0 Copyright (c) Steve Scherf et al.
# Submitted via: ExactAudioCopy v0.95a3
# Normalized: r0:TDELIM( - );r1:TSWAP
#
DISCID=da0bc90f
DTITLE=Various Artist - Spanish Summer Songs
DYEAR=1996
DGENRE=
TTITLE0=Los Del Rio - Macarena (Bayside Boys Remix)
TTITLE1=Gary Low - La Collegiala
TTITLE2=Mocedades - Eres Tu
TTITLE3=Righeira - Vamos A La Playa
TTITLE4=Rumba Tres - Baila Mi Rumba
TTITLE5=Los Tres - Chibili Ben
TTITLE6=Baccara - La Bamba
TTITLE7=Peret - Borriquito
TTITLE8=Santa Esmeralda - Don't Let Me Misunderstood
TTITLE9=Los Manolos - All My Loving
TTITLE10=José Feliciano - Che Sarà
TTITLE11=Enrico Barona - Agua Y Fuego
TTITLE12=Tony Y Los Santos - Trico Trico Tra
TTITLE13=Juan Bastos - Loop Di Love
TTITLE14=Righeira - No Tengo Dinero
EXTD=
EXTT0=
EXTT1=
EXTT2=
EXTT3=
EXTT4=
EXTT5=
EXTT6=
EXTT7=
EXTT8=
EXTT9=
EXTT10=
EXTT11=
EXTT12=
EXTT13=
EXTT14=
PLAYORDER=
